<svg xmlns="http://www.w3.org/2000/svg" width="170" height="54" fill="none"><path fill="#D3D3DB" d="M47.78 10c-1.92 0-3.48 1.57-3.48 3.52v9.38c0 1.94 1.56 3.5 3.48 3.5 1.93 0 3.5-1.56 3.5-3.5v-9.38c0-1.95-1.57-3.52-3.5-3.52zM55.92 27.6c-1.93 0-3.5 1.56-3.5 3.5v9.38c0 1.95 1.57 3.52 3.5 3.52 1.92 0 3.5-1.57 3.5-3.52V31.1c0-1.94-1.58-3.5-3.5-3.5zM47.78 27.6c1.93 0 3.5 1.56 3.5 3.5 0 1.95-1.57 3.52-3.5 3.52h-9.3c-1.92 0-3.48-1.57-3.48-3.52 0-1.94 1.56-3.5 3.5-3.5h9.28zM68.7 22.9c0-1.95-1.56-3.52-3.48-3.52h-9.3c-1.93 0-3.5 1.57-3.5 3.52 0 1.94 1.57 3.5 3.5 3.5h9.3c1.92 0 3.48-1.56 3.48-3.5zM83.9 32.98c.64 0 1.15-.17 1.55-.53.4-.35.6-.82.6-1.4h3.22c0 .88-.24 1.7-.7 2.43-.47.73-1.1 1.3-1.93 1.7-.8.4-1.7.6-2.67.6-1.83 0-3.27-.58-4.33-1.76-1.06-1.2-1.6-2.83-1.6-4.92v-.23c0-2 .54-3.6 1.6-4.8 1.04-1.2 2.48-1.8 4.3-1.8 1.6 0 2.9.46 3.85 1.4.96.92 1.46 2.15 1.47 3.7h-3.2c-.02-.68-.23-1.23-.62-1.64-.4-.43-.92-.64-1.56-.64-.8 0-1.4.3-1.82.88-.4.6-.6 1.54-.6 2.87v.36c0 1.35.2 2.32.6 2.9.4.6 1 .88 1.83.88zM94.83 35.55H91.4V17.03h3.43v18.52zM105.08 35.55c-.16-.3-.27-.7-.34-1.17-.83.94-1.9 1.4-3.23 1.4-1.25 0-2.3-.36-3.12-1.1-.82-.74-1.23-1.67-1.23-2.8 0-1.38.5-2.44 1.5-3.18 1.02-.73 2.47-1.1 4.37-1.12h1.58v-.74c0-.6-.16-1.1-.46-1.45-.3-.37-.78-.55-1.44-.55-.57 0-1.03.14-1.36.42-.32.28-.48.67-.48 1.16h-3.42c0-.76.23-1.46.68-2.1.46-.64 1.1-1.15 1.94-1.5.84-.38 1.78-.56 2.82-.56 1.58 0 2.83.4 3.75 1.2.93.82 1.4 1.95 1.4 3.4v5.67c0 1.24.18 2.17.5 2.8v.2h-3.45zm-2.83-2.42c.5 0 .97-.1 1.4-.34.43-.24.74-.55.95-.94v-2.24h-1.28c-1.7 0-2.62.6-2.73 1.8l-.03.2c0 .45.15.8.45 1.1.3.27.7.4 1.23.4zM117.6 31.95c0-.43-.22-.76-.64-1-.4-.25-1.07-.47-1.98-.67-3.05-.65-4.57-1.97-4.57-3.95 0-1.16.48-2.12 1.42-2.9.94-.77 2.18-1.16 3.7-1.16 1.63 0 2.92.4 3.9 1.17.97.78 1.46 1.8 1.46 3.03h-3.42c0-.5-.16-.9-.47-1.23-.33-.33-.82-.5-1.5-.5-.57 0-1 .14-1.33.4-.3.27-.47.6-.47 1.02 0 .4.18.7.53.94.36.23.97.44 1.82.62.86.16 1.57.36 2.16.57 1.8.67 2.72 1.84 2.72 3.5 0 1.2-.5 2.16-1.5 2.9-1 .73-2.3 1.1-3.9 1.1-1.06 0-2.02-.2-2.85-.6-.83-.38-1.48-.9-1.95-1.6-.48-.67-.7-1.4-.7-2.2h3.23c.03.62.25 1.1.67 1.43.42.33.98.5 1.68.5.66 0 1.15-.13 1.48-.38.34-.26.5-.6.5-1zM127.78 30.32l-1.23 1.25v3.98h-3.42V17.03h3.42V27.3l.66-.87 3.3-3.92h4.1l-4.63 5.44 5.03 7.6h-3.93l-3.3-5.22z"/></svg>