<svg xmlns="http://www.w3.org/2000/svg" width="170" height="54" fill="none"><path fill="#D3D3DB" d="M40.1 38H57.7c1.85 0 3.35-1.52 3.35-3.38v-3.4c0-3.73-3-6.76-6.72-6.76-1.27 0-2.46.36-3.47.97-.76-5.33-5.3-9.43-10.8-9.43-5.15 0-9.45 3.57-10.62 8.37-.92-1-2.23-1.6-3.68-1.6-2.78 0-5.04 2.27-5.04 5.08 0 .5.08 1 .22 1.47-.68-.4-1.47-.63-2.32-.63-2.55 0-4.62 2.08-4.62 4.65v1.27c0 1.86 1.5 3.38 3.36 3.38H40.1zM154.63 29.54h-.6v1.22l-1.08-.63-.3.55 1.1.6-1.1.6.3.53 1.1-.6-.02 1.22h.6V31.8l1.08.62.3-.54-1.1-.6 1.1-.6-.3-.54-1.08.62v-1.22zM72.62 32.5c-.27-.32-.6-.58-.96-.77-.37-.2-.74-.3-1.1-.3-.42 0-.8.1-1.14.3-.34.2-.6.5-.8.85-.2.36-.3.75-.3 1.2 0 .43.1.83.3 1.2.2.34.46.62.8.83.34.2.72.3 1.14.3.34 0 .7-.08 1.07-.24.37-.17.7-.4 1-.7l1.25 1.33c-.45.45-.98.82-1.6 1.1-.62.27-1.23.4-1.84.4-.82 0-1.56-.18-2.22-.55-.66-.37-1.18-.88-1.56-1.5-.38-.65-.57-1.37-.57-2.16 0-.8.2-1.5.57-2.13.4-.63.92-1.12 1.6-1.5.66-.35 1.42-.53 2.26-.53.6 0 1.22.13 1.82.38.6.25 1.1.6 1.52 1.02l-1.25 1.47zM75.04 29.77h2.17v6.28h3.52v1.8h-5.68v-8.08z"/><path fill="#D3D3DB" fill-rule="evenodd" d="M88.17 30.18c-.68-.36-1.44-.54-2.28-.54-.86 0-1.62.18-2.3.54-.68.37-1.22.86-1.6 1.5-.4.62-.6 1.33-.6 2.1 0 .8.2 1.52.6 2.17.38.64.92 1.14 1.6 1.5.68.37 1.44.55 2.3.55.83 0 1.6-.18 2.27-.55.68-.37 1.22-.88 1.6-1.5.4-.65.6-1.37.6-2.16 0-.8-.2-1.5-.6-2.13-.38-.63-.92-1.12-1.6-1.5zm-3.4 1.56c.35-.2.73-.3 1.14-.3.42 0 .8.1 1.13.3.35.2.62.5.82.86.2.37.3.77.3 1.2 0 .45-.1.86-.3 1.23-.2.36-.47.65-.82.86-.34.2-.7.3-1.12.3-.4 0-.78-.1-1.12-.3-.35-.22-.63-.5-.84-.87-.2-.37-.3-.78-.3-1.23 0-.43.1-.83.3-1.2.2-.36.48-.65.82-.86z" clip-rule="evenodd"/><path fill="#D3D3DB" d="M93.7 34.52c0 .5.15.9.46 1.22.3.3.7.46 1.17.46.46 0 .83-.15 1.12-.45.3-.3.43-.72.43-1.23v-4.75h2.17v4.75c0 .7-.16 1.3-.46 1.84-.3.53-.75.93-1.3 1.2-.57.3-1.23.44-2 .44-.74 0-1.4-.14-1.98-.43-.57-.28-1-.68-1.33-1.2-.3-.54-.47-1.15-.47-1.85v-4.75h2.16v4.75z"/><path fill="#D3D3DB" fill-rule="evenodd" d="M106.62 30.28c-.66-.34-1.42-.5-2.3-.5h-3.56v8.07h3.5c.87 0 1.65-.17 2.33-.5.67-.35 1.2-.82 1.57-1.44.38-.6.57-1.3.57-2.1s-.2-1.5-.56-2.1c-.37-.6-.9-1.1-1.56-1.42zm-1.12 5.58c-.32.2-.7.28-1.1.28h-1.48V31.5h1.36c.44 0 .82.1 1.16.3.34.18.6.45.8.8.2.36.3.77.3 1.23 0 .45-.1.85-.28 1.2-.2.36-.44.63-.76.83zM113.69 29.77c1.04 0 1.86.25 2.44.75.58.5.88 1.2.88 2.08 0 .96-.3 1.7-.88 2.23-.58.52-1.4.78-2.45.78h-1.5v2.25h-2.16v-8.08h3.64zm-.12 4.16c.44 0 .78-.1 1-.32.26-.2.38-.52.38-.93 0-.4-.12-.7-.37-.9-.24-.2-.58-.32-1.02-.32h-1.37v2.48h1.38zM124.54 30.18c-.68-.36-1.44-.54-2.28-.54-.84 0-1.6.18-2.3.54-.67.37-1.2.86-1.6 1.5-.4.62-.58 1.33-.58 2.1 0 .8.2 1.52.58 2.17.4.64.93 1.14 1.6 1.5.7.37 1.46.55 2.3.55.84 0 1.6-.18 2.28-.55.7-.37 1.22-.88 1.6-1.5.4-.65.6-1.37.6-2.16 0-.8-.2-1.5-.6-2.13-.38-.63-.9-1.12-1.6-1.5zm-3.4 1.56c.35-.2.73-.3 1.14-.3.4 0 .8.1 1.13.3.35.2.63.5.82.86.2.37.3.77.3 1.2 0 .45-.1.86-.3 1.23-.2.36-.47.65-.8.86-.35.2-.73.3-1.14.3-.4 0-.78-.1-1.13-.3-.35-.22-.63-.5-.84-.87-.2-.37-.3-.78-.3-1.23 0-.43.1-.83.3-1.2.22-.36.5-.65.84-.86z" clip-rule="evenodd"/><path fill="#D3D3DB" d="M128.05 29.77h2.16v6.28h3.52v1.8h-5.67v-8.08z"/><path fill="#D3D3DB" fill-rule="evenodd" d="M140.5 36.42l.56 1.43h2.3l-3.47-8.08h-2.23l-3.56 8.08h2.24l.57-1.43h3.6zm-.64-1.6h-2.3l1.16-2.9 1.14 2.9zM149.33 37.85l-1.2-2.24h-1.62v2.25h-2.15v-8.08h3.72c1.1 0 1.95.25 2.55.75.6.5.9 1.2.9 2.08 0 .6-.12 1.14-.37 1.58-.25.44-.62.78-1.1 1.03l1.72 2.65h-2.44zm-2.82-3.92h1.6c.43 0 .77-.1 1-.32.25-.2.37-.52.37-.93 0-.4-.12-.7-.37-.9-.23-.2-.57-.32-1-.32h-1.6v2.48z" clip-rule="evenodd"/></svg>