<svg xmlns="http://www.w3.org/2000/svg" width="170" height="54" fill="none"><path fill="#D3D3DB" d="M50.4 37.33c-.97 1.16-2.35 2.07-4.13 2.72-1.77.63-3.74.95-5.9.95-2.27 0-4.27-.5-5.98-1.48-1.72-1-3.04-2.43-3.98-4.3-.92-1.9-1.4-4.1-1.42-6.65v-1.8c0-2.6.44-4.86 1.3-6.77.9-1.92 2.18-3.38 3.83-4.4 1.67-1 3.62-1.52 5.86-1.52 3.1 0 5.53.74 7.28 2.23 1.76 1.5 2.8 3.64 3.12 6.47h-5.26c-.24-1.5-.78-2.6-1.6-3.3-.82-.7-1.95-1.04-3.4-1.04-1.83 0-3.23.7-4.2 2.07-.95 1.38-1.43 3.43-1.45 6.16v1.67c0 2.75.52 4.82 1.56 6.23 1.05 1.4 2.58 2.1 4.6 2.1 2.02 0 3.47-.43 4.33-1.3v-4.5h-4.92v-4H50.4v10.47zM59.95 40.64h-5.23V21.17h5.23v19.47zm-5.53-24.5c0-.8.25-1.43.77-1.93s1.23-.75 2.13-.75c.9 0 1.6.25 2.13.76.53.5.8 1.15.8 1.93 0 .8-.28 1.44-.82 1.94-.53.5-1.23.76-2.1.76-.88 0-1.6-.25-2.13-.76-.52-.5-.78-1.15-.78-1.94zM70.48 16.38v4.8h3.33v3.8H70.5v9.72c0 .72.14 1.24.42 1.55.27.3.8.47 1.58.47.58 0 1.1-.04 1.53-.13v3.93c-1 .3-2.06.47-3.14.47-3.65 0-5.5-1.84-5.58-5.52v-10.5h-2.85v-3.8h2.85v-4.8h5.2zM98.4 40.64H93V29.4H82.46v11.24h-5.4v-26.2h5.4v10.62H93V14.44h5.4v26.2zM114.47 38.66c-1.3 1.56-3.06 2.34-5.33 2.34-2.1 0-3.7-.6-4.8-1.8-1.1-1.2-1.65-2.96-1.67-5.27V21.17h5.2v12.58c0 2.03.93 3.04 2.78 3.04 1.77 0 2.98-.62 3.64-1.85V21.17h5.2v19.47h-4.9l-.13-1.98zM141 31.08c0 3.12-.67 5.56-2 7.3-1.33 1.75-3.2 2.62-5.58 2.62-2.12 0-3.8-.8-5.06-2.43l-.24 2.07h-4.68V13h5.2v9.92c1.2-1.4 2.78-2.1 4.74-2.1 2.38 0 4.24.87 5.6 2.62 1.34 1.74 2.02 4.2 2.02 7.36v.28zm-5.2-.37c0-1.96-.32-3.4-.94-4.3-.63-.9-1.56-1.36-2.8-1.36-1.65 0-2.8.68-3.42 2.03v7.7c.64 1.35 1.8 2.04 3.46 2.04 1.68 0 2.8-.82 3.32-2.48.25-.8.37-2 .37-3.6z"/></svg>