<svg xmlns="http://www.w3.org/2000/svg" width="177" height="38" fill="none"><path fill="url(#a)" fill-rule="evenodd" d="M31 16.5C31 25.06 24.06 32 15.5 32c-3.07 0-5.92-.9-8.33-2.43L0 32l2.47-7.1C.9 22.48 0 19.6 0 16.5 0 7.94 6.94 1 15.5 1 24.06 1 31 7.94 31 16.5zM15.5 8.53c4.4 0 7.97 3.57 7.97 7.97 0 1.58-.25 2.84-1.04 4.08l.82 3.67-3.67-.82c-1.25.8-2.5 1.04-4.08 1.04-4.4 0-7.97-3.57-7.97-7.97s3.57-7.97 7.97-7.97z" clip-rule="evenodd"/><path fill="#222B34" d="M51.17 16H48V9.53h-5.93V16H38.9V1h3.17V6.9H48V1h3.17v15zm5.2-5.75c0 1.13.2 2 .55 2.57.38.58 1 .87 1.83.87.83 0 1.43-.3 1.8-.87.36-.58.55-1.44.55-2.58 0-1.14-.2-2-.56-2.56-.37-.57-.97-.86-1.8-.86-.85 0-1.45.3-1.82.85-.37.55-.55 1.4-.55 2.55zm7.93 0c0 1.86-.5 3.32-1.48 4.38-.98 1.05-2.35 1.58-4.1 1.58-1.1 0-2.08-.23-2.92-.7-.84-.5-1.5-1.2-1.94-2.1-.45-.9-.68-1.95-.68-3.15 0-1.88.5-3.33 1.47-4.37.98-1.04 2.35-1.56 4.12-1.56 1.1 0 2.07.24 2.9.72.85.48 1.5 1.16 1.95 2.06.45.9.68 1.94.68 3.15zm9.74 2.35c0 1.17-.4 2.07-1.23 2.68-.8.62-2.03.93-3.65.93-.84 0-1.55-.05-2.14-.17-.57-.1-1.12-.27-1.64-.5v-2.58c.58.28 1.24.5 1.96.7.73.18 1.38.27 1.93.27 1.13 0 1.7-.33 1.7-1 0-.23-.07-.43-.22-.58-.15-.16-.4-.33-.78-.52-.37-.2-.86-.43-1.48-.7-.88-.36-1.53-.7-1.95-1.02-.4-.3-.7-.67-.9-1.07-.18-.4-.28-.92-.28-1.5 0-1.03.4-1.8 1.18-2.37.8-.56 1.92-.84 3.37-.84 1.37 0 2.7.3 4.02.9l-.95 2.26c-.57-.25-1.1-.45-1.6-.6-.5-.16-1.02-.24-1.54-.24-.92 0-1.38.25-1.38.75 0 .27.15.5.44.7.3.22.94.52 1.95.93.9.36 1.55.7 1.97 1 .42.33.72.7.92 1.1.2.4.3.9.3 1.47zm6.43 1.1c.55 0 1.2-.1 1.97-.35v2.33c-.78.35-1.74.53-2.87.53-1.25 0-2.17-.3-2.74-.94-.57-.63-.85-1.58-.85-2.85V6.9h-1.5V5.56l1.72-1.04.9-2.42h2v2.44h3.2v2.34h-3.2v5.53c0 .46.13.78.37 1 .26.2.6.3 1 .3zm-38.4 9.96h1.02c1 0 1.74-.16 2.22-.5.47-.33.7-.86.7-1.58 0-.7-.23-1.2-.72-1.52-.5-.3-1.25-.45-2.27-.45h-.96v4.06zm0 2.6V32H38.9V17h4.35c2.04 0 3.55.38 4.53 1.13.97.73 1.46 1.86 1.46 3.37 0 .88-.24 1.67-.72 2.36-.5.68-1.18 1.22-2.07 1.6 2.26 3.38 3.73 5.56 4.4 6.54h-3.5l-3.6-5.75h-1.68zm12.1 0c0 1.12.17 1.98.54 2.56.4.58 1 .87 1.83.87.84 0 1.44-.3 1.8-.87.37-.58.55-1.44.55-2.58 0-1.14-.18-2-.55-2.56-.37-.57-.98-.86-1.82-.86-.82 0-1.42.3-1.8.85-.36.55-.54 1.4-.54 2.55zm7.9 0c0 1.85-.48 3.3-1.46 4.37-.98 1.05-2.35 1.58-4.1 1.58-1.1 0-2.08-.23-2.92-.7-.84-.5-1.5-1.2-1.94-2.1-.45-.9-.67-1.95-.67-3.15 0-1.88.5-3.33 1.46-4.37.98-1.04 2.35-1.56 4.13-1.56 1.1 0 2.07.24 2.9.72.85.48 1.5 1.16 1.95 2.06.46.9.68 1.94.68 3.15zM74.42 32H71.3v-6.7c0-.82-.15-1.44-.44-1.85-.3-.42-.76-.63-1.4-.63-.88 0-1.5.3-1.9.88-.4.6-.6 1.55-.6 2.9V32h-3.1V20.54h2.38l.42 1.46h.17c.36-.55.84-.97 1.45-1.25.6-.3 1.3-.43 2.1-.43 1.32 0 2.33.36 3.02 1.1.7.7 1.04 1.74 1.04 3.1V32zm12.36-11.46v1.6l-1.8.45c.34.5.5 1.07.5 1.7 0 1.24-.43 2.2-1.3 2.9-.84.67-2.03 1.02-3.56 1.02l-.56-.03-.46-.07c-.32.25-.5.52-.5.82 0 .46.6.68 1.74.68h1.95c1.25 0 2.2.27 2.87.8.66.55 1 1.34 1 2.4 0 1.33-.57 2.37-1.7 3.1-1.1.75-2.7 1.1-4.8 1.1-1.6 0-2.82-.27-3.67-.83-.84-.55-1.26-1.33-1.26-2.33 0-.7.22-1.27.65-1.74.44-.46 1.07-.8 1.9-1-.32-.13-.6-.35-.84-.66-.23-.3-.35-.64-.35-1 0-.43.13-.8.38-1.08.25-.3.62-.6 1.1-.87-.6-.26-1.08-.68-1.44-1.25-.36-.58-.53-1.25-.53-2.03 0-1.25.4-2.22 1.22-2.9.8-.7 1.97-1.03 3.48-1.03.32 0 .7.03 1.13.1.46.05.74.1.87.12h4zm-8.84 13.08c0 .43.2.77.6 1.02.43.24 1 .36 1.75.36 1.13 0 2-.15 2.64-.46.64-.3.96-.73.96-1.26 0-.43-.2-.73-.56-.9-.38-.15-.96-.24-1.74-.24h-1.62c-.58 0-1.06.14-1.45.4-.4.28-.58.64-.58 1.08zm1.13-9.33c0 .6.14 1.1.42 1.47.3.36.73.54 1.3.54.6 0 1.02-.17 1.3-.53.27-.37.4-.86.4-1.48 0-1.4-.56-2.08-1.7-2.08s-1.72.7-1.72 2.07zm11.26 1.95c0 1.13.2 2 .57 2.57.37.58.98.87 1.82.87.83 0 1.42-.3 1.8-.87.36-.58.54-1.44.54-2.58 0-1.14-.18-2-.55-2.56-.38-.57-1-.86-1.83-.86-.83 0-1.43.3-1.8.85-.37.55-.56 1.4-.56 2.55zm7.94 0c0 1.86-.5 3.32-1.48 4.38-.98 1.05-2.35 1.58-4.1 1.58-1.1 0-2.08-.23-2.92-.7-.84-.5-1.5-1.2-1.94-2.1-.45-.9-.68-1.95-.68-3.15 0-1.88.5-3.33 1.47-4.37s2.34-1.56 4.1-1.56c1.1 0 2.08.24 2.92.72.85.48 1.5 1.16 1.94 2.06.45.9.68 1.94.68 3.15z"/><path stroke="#E9EAEB" d="M109.5 1v31"/><path fill="#A1A3AD" d="M127.07 11.67c0 .77-.27 1.36-.83 1.8-.55.43-1.3.65-2.27.65s-1.77-.15-2.38-.45v-1.33c.38.2.8.33 1.23.44.44.1.85.15 1.23.15.55 0 .96-.1 1.22-.3.27-.22.4-.5.4-.86 0-.32-.12-.6-.36-.82-.24-.22-.74-.48-1.5-.8-.78-.3-1.33-.67-1.65-1.07-.32-.4-.48-.9-.48-1.47 0-.7.24-1.26.75-1.67.5-.4 1.2-.62 2.04-.62.8 0 1.63.2 2.44.55L126.5 7c-.77-.33-1.44-.5-2.04-.5-.46 0-.8.1-1.03.3-.24.2-.36.47-.36.8 0 .2.05.4.15.56.1.16.24.3.46.45.2.15.6.34 1.16.57.63.26 1.1.5 1.38.73.3.22.5.48.64.77.14.28.2.62.2 1zm4.86 2.33h-1.4V6.63H128v-1.2h6.45v1.2h-2.52V14zm11.68-4.3c0 1.4-.34 2.48-1.04 3.26-.7.77-1.68 1.16-2.96 1.16-1.3 0-2.28-.4-2.98-1.15-.7-.77-1.04-1.86-1.04-3.28 0-1.42.35-2.5 1.05-3.26.7-.76 1.7-1.14 3-1.14 1.26 0 2.24.38 2.94 1.15.7.77 1.04 1.86 1.04 3.26zm-6.53 0c0 1.06.22 1.86.64 2.4.44.55 1.07.82 1.9.82.84 0 1.46-.27 1.88-.8.43-.55.64-1.35.64-2.4 0-1.07-.2-1.86-.63-2.4-.43-.55-1.05-.82-1.88-.82-.84 0-1.48.27-1.9.8-.44.56-.65 1.35-.65 2.4zm10.02-.28h.96c.66 0 1.13-.12 1.42-.37.3-.24.44-.6.44-1.07 0-.5-.16-.84-.47-1.05-.32-.2-.8-.3-1.43-.3h-.93v2.8zm0 1.16V14h-1.4V5.43h2.4c1.12 0 1.93.2 2.47.62.53.42.8 1.04.8 1.88 0 1.07-.56 1.83-1.67 2.28l2.42 3.8h-1.6l-2.05-3.42h-1.38zM158.44 14h-4.84V5.43h4.85v1.2H155v2.32h3.24v1.17H155v2.7h3.45V14zM128.9 28h-1.42v-3.86h-3.95V28h-1.4v-8.57h1.4v3.5h3.95v-3.5h1.4V28zm10.1-4.3c0 1.4-.36 2.48-1.06 3.26-.7.77-1.68 1.16-2.96 1.16-1.3 0-2.3-.4-2.98-1.15-.7-.77-1.04-1.86-1.04-3.28 0-1.42.35-2.5 1.04-3.26.7-.76 1.7-1.14 3-1.14 1.26 0 2.25.38 2.94 1.15.7.77 1.05 1.86 1.05 3.26zm-6.55 0c0 1.06.2 1.86.64 2.4.4.55 1.04.82 1.88.82.83 0 1.46-.27 1.88-.8.43-.55.64-1.35.64-2.4 0-1.07-.2-1.86-.63-2.4-.42-.55-1.05-.82-1.88-.82-.85 0-1.48.27-1.9.8-.44.56-.65 1.35-.65 2.4zM146 25.68c0 .77-.27 1.36-.82 1.8-.55.43-1.3.65-2.28.65-.97 0-1.76-.15-2.38-.45v-1.33c.4.2.8.33 1.24.44.45.1.86.15 1.24.15.55 0 .96-.1 1.22-.3.27-.22.4-.5.4-.86 0-.32-.12-.6-.37-.82-.24-.22-.74-.48-1.5-.8-.78-.3-1.33-.67-1.65-1.07-.32-.4-.48-.9-.48-1.47 0-.7.26-1.26.76-1.67.5-.4 1.2-.62 2.05-.62.82 0 1.64.2 2.45.55l-.45 1.14c-.76-.33-1.44-.5-2.04-.5-.46 0-.8.1-1.04.3-.23.2-.35.47-.35.8 0 .2.06.4.15.56.1.16.25.3.47.45.2.15.6.34 1.16.57.62.26 1.1.5 1.38.73.3.23.5.48.64.77.14.28.2.62.2 1zm4.87 2.33h-1.4v-7.37h-2.53v-1.2h6.44v1.2h-2.5V28zm4.07 0v-8.57h1.4V28h-1.4zM166 28h-1.73l-4.2-6.83H160l.04.38c.06.73.08 1.4.08 2V28h-1.27v-8.57h1.7l4.2 6.8h.04c-.02-.1-.04-.42-.06-.98-.02-.57-.04-1-.04-1.33v-4.5h1.3V28zm6-4.65h3.15v4.3c-.52.17-1.02.3-1.5.36-.47.08-.98.12-1.53.12-1.3 0-2.3-.4-3-1.15-.7-.77-1.05-1.85-1.05-3.25 0-1.38.4-2.46 1.2-3.24.78-.78 1.87-1.17 3.26-1.17.9 0 1.74.18 2.54.53l-.5 1.16c-.68-.33-1.38-.5-2.07-.5-.92 0-1.64.3-2.17.87-.53.58-.8 1.36-.8 2.36 0 1.05.24 1.84.72 2.4.48.53 1.17.8 2.06.8.47 0 .95-.05 1.47-.17v-2.2H172v-1.2z"/><defs><linearGradient id="a" x1="-55.882" x2="22.434" y1="87.882" y2="9.566" gradientUnits="userSpaceOnUse"><stop stop-color="#230042"/><stop offset="1" stop-color="#FF5166"/></linearGradient></defs></svg>