<svg xmlns="http://www.w3.org/2000/svg" width="198" height="37" fill="none"><rect width="61" height="36" x=".5" y=".5" fill="#fff" stroke="#E9E6EC" rx="2.5"/><path fill="#4592CD" d="M37.68 13h-2.93c-.17 0-.35.18-.43.37l-1.2 8.13c0 .2.08.28.25.28h1.55c.17 0 .26-.1.26-.28l.34-2.3c0-.2.18-.38.43-.38h.95c1.98 0 3.1-1 3.36-3.05.18-.83 0-1.57-.34-2.03-.52-.46-1.3-.74-2.24-.74zm.34 3.05c-.17 1.1-.95 1.1-1.72 1.1h-.52l.35-2.12c0-.1.08-.18.26-.18h.16c.5 0 1.03 0 1.3.37.16.1.16.37.16.83z"/><path fill="#194593" d="M16.57 13h-2.93c-.18 0-.35.18-.43.37L12 21.5c0 .2.1.28.26.28h1.38c.17 0 .34-.18.43-.37l.34-2.2c0-.2.2-.38.44-.38h.95c1.97 0 3.1-1 3.35-3.05.17-.83 0-1.57-.34-2.03-.5-.46-1.2-.74-2.23-.74zm.34 3.05c-.16 1.1-.94 1.1-1.7 1.1h-.44l.34-2.12c0-.1.1-.18.26-.18h.17c.52 0 1.04 0 1.3.37.08.1.17.37.08.83zM25.44 15.96h-1.38c-.08 0-.26.1-.26.18l-.08.47-.1-.18c-.33-.46-.94-.65-1.62-.65-1.56 0-2.93 1.3-3.2 3.05-.17.93.1 1.76.52 2.32.43.55 1.04.73 1.8.73 1.3 0 2-.83 2-.83l-.1.46c0 .2.1.28.27.28h1.28c.17 0 .35-.18.43-.37l.8-5.16c-.1-.1-.27-.28-.36-.28zm-1.98 2.96c-.17.83-.78 1.48-1.64 1.48-.43 0-.77-.2-.94-.37-.18-.28-.26-.65-.26-1.1.08-.85.77-1.5 1.55-1.5.43 0 .7.2.95.38.25.28.34.75.34 1.12z"/><path fill="#4592CD" d="M46.47 15.96H45.1c-.1 0-.27.1-.27.18l-.1.47-.07-.18c-.35-.46-.95-.65-1.64-.65-1.55 0-2.93 1.3-3.2 3.05-.16.93.1 1.76.53 2.32.43.55 1.03.73 1.8.73 1.3 0 2-.83 2-.83l-.1.46c0 .2.1.28.26.28h1.3c.18 0 .35-.18.44-.37l.77-5.16c-.08-.1-.16-.28-.33-.28zm-2 2.96c-.16.83-.76 1.48-1.62 1.48-.43 0-.78-.2-.95-.37-.17-.28-.26-.65-.26-1.1.1-.85.78-1.5 1.55-1.5.42 0 .68.2.94.38.34.28.43.75.34 1.12z"/><path fill="#194593" d="M32.94 15.96h-1.47c-.17 0-.25.1-.34.18l-1.9 3.15-.86-2.97c-.08-.2-.17-.28-.43-.28h-1.38c-.17 0-.26.2-.26.37l1.55 4.9-1.46 2.22c-.1.18 0 .46.16.46h1.38c.17 0 .26-.1.35-.18l4.72-7.3c.26-.28.1-.56-.08-.56z"/><path fill="#4592CD" d="M48.1 13.28l-1.2 8.32c0 .18.08.27.26.27h1.2c.18 0 .35-.18.43-.37l1.2-8.13c0-.18-.1-.28-.26-.28h-1.38c-.08-.1-.17 0-.26.18z"/><rect width="61" height="36" x="68.5" y=".5" fill="#fff" stroke="#E9E6EC" rx="2.5"/><path fill="#2B3C94" fill-rule="evenodd" d="M91.5 24.68l3.56-11.43h3.17l-3.56 11.43H91.5zm-1.42-11.43l-2.86 4.85c-.72 1.27-1.15 1.9-1.35 2.7h-.05c.05-1-.1-2.26-.1-2.96l-.32-4.6h-5.35l-.05.32c1.37 0 2.2.67 2.4 2.05l1.05 9.08h3.3l6.64-11.43h-3.32zm24.7 11.43l-.1-1.7h-3.96l-.8 1.7h-3.46l6.25-11.4h4.24l1.06 11.4h-3.23zm-.37-6.74c-.03-.85-.06-2 0-2.7h-.05c-.2.58-1.02 2.28-1.38 3.12l-1.2 2.5h2.8l-.16-2.92zM101.58 25c-2.25 0-3.73-.7-4.8-1.3l1.52-2.26c.94.52 1.7 1.12 3.4 1.12.56 0 1.1-.14 1.4-.65.44-.73-.1-1.13-1.34-1.82l-.6-.4c-1.85-1.2-2.65-2.37-1.78-4.4.55-1.3 2-2.28 4.42-2.28 1.67 0 3.22.7 4.13 1.38l-1.74 2c-.9-.7-1.63-1.06-2.47-1.06-.67 0-1.18.25-1.35.6-.33.63.1 1.06 1.07 1.65l.73.45c2.23 1.37 2.76 2.8 2.2 4.15-.96 2.3-2.84 2.83-4.8 2.83z" clip-rule="evenodd"/><rect width="61" height="36" x="136.5" y=".5" fill="#fff" stroke="#E9E6EC" rx="2.5"/><path fill="#ED1932" d="M160 7.14c-.24 0-.47-.02-.7-.02-6.26 0-11.3 5.14-11.3 11.44S153.1 30 159.35 30c.22 0 .44 0 .65-.02V7.14z"/><path fill="#F7A732" d="M186 18.5c0 6.33-5.07 11.5-11.4 11.5-6.3 0-11.42-5.17-11.42-11.5S168.25 7 174.53 7c6.4 0 11.47 5.17 11.47 11.5z"/><path fill="#ED1932" d="M170.73 18.56c0-.85-.12-1.64-.24-2.43h-7.02c.06-.43.2-.8.3-1.22h6.28c-.12-.42-.3-.84-.48-1.2h-5.3c.17-.43.4-.8.65-1.22h4.05c-.24-.43-.55-.86-.9-1.22h-2.24c.36-.43.72-.8 1.15-1.16-1.95-1.83-4.58-2.92-7.45-2.98V30c2.9-.05 5.48-1.2 7.5-3 .42-.35.78-.78 1.14-1.2h-2.36c-.3-.37-.6-.8-.85-1.16h4.04c.24-.37.48-.8.66-1.22h-5.37c-.18-.36-.36-.8-.48-1.22h6.27c.37-1.14.6-2.36.6-3.64z"/><path fill="#fff" d="M163.42 21.42l.18-1.03c-.06 0-.18.05-.3.05-.42 0-.48-.25-.42-.37l.36-2.13h.66l.2-1.15h-.62l.12-.73h-1.2s-.73 4-.73 4.5c0 .73.42 1.03.97 1.03.36 0 .66-.12.78-.18zM163.84 19.47c0 1.7 1.15 2.13 2.12 2.13.9 0 1.26-.18 1.26-.18l.25-1.16s-.67.3-1.27.3c-1.33 0-1.1-.96-1.1-.96h2.5s.17-.8.17-1.1c0-.8-.43-1.76-1.75-1.76-1.27-.13-2.18 1.2-2.18 2.73zm2.12-1.76c.66 0 .54.8.54.86h-1.33c0-.06.12-.85.8-.85zM173.62 21.42l.24-1.34s-.6.3-1.02.3c-.85 0-1.2-.66-1.2-1.4 0-1.45.72-2.24 1.56-2.24.6 0 1.1.36 1.1.36l.17-1.28s-.73-.3-1.4-.3c-1.38 0-2.77 1.22-2.77 3.53 0 1.52.73 2.55 2.17 2.55.5 0 1.15-.18 1.15-.18zM156.78 16.6c-.84 0-1.45.26-1.45.26l-.18 1.03s.54-.25 1.33-.25c.42 0 .78.06.78.42 0 .25-.06.3-.06.3s-.36 0-.54 0c-1.03 0-2.17.43-2.17 1.83 0 1.1.7 1.34 1.13 1.34.85 0 1.2-.54 1.27-.54l-.06.48h1.1l.47-3.34c0-1.46-1.2-1.53-1.62-1.53zm.24 2.75c0 .18-.12 1.16-.84 1.16-.37 0-.5-.3-.5-.48 0-.3.2-.73 1.1-.73.18.05.24.05.24.05zM159.56 21.54c.3 0 1.8.06 1.8-1.58 0-1.52-1.44-1.22-1.44-1.83 0-.3.24-.42.66-.42.18 0 .85.07.85.07l.18-1.1s-.4-.12-1.14-.12c-.9 0-1.8.37-1.8 1.58 0 1.4 1.5 1.28 1.5 1.83 0 .36-.42.43-.72.43-.55 0-1.1-.2-1.1-.2l-.17 1.1c.06.12.36.24 1.4.24zM183.64 15.64l-.24 1.64s-.48-.6-1.15-.6c-1.08 0-2.05 1.33-2.05 2.9 0 1 .5 2.02 1.5 2.02.74 0 1.16-.48 1.16-.48l-.06.42h1.2l.9-5.84-1.26-.06zm-.54 3.22c0 .67-.3 1.53-.97 1.53-.42 0-.66-.38-.66-1 0-.96.42-1.57.97-1.57.42 0 .66.3.66 1.03zM150.2 21.48l.73-4.38.12 4.38h.84l1.56-4.38-.66 4.38h1.26l.97-5.84h-2l-1.2 3.6-.06-3.6h-1.75l-.97 5.84h1.15zM168.9 21.48c.38-2 .44-3.65 1.28-3.35.12-.8.3-1.1.43-1.4 0 0-.06 0-.24 0-.54 0-.96.73-.96.73l.12-.66h-1.15l-.78 4.74h1.3v-.06zM176.4 16.6c-.84 0-1.45.26-1.45.26l-.18 1.03s.54-.25 1.33-.25c.42 0 .78.06.78.42 0 .25-.06.3-.06.3s-.36 0-.54 0c-1.03 0-2.17.43-2.17 1.83 0 1.1.73 1.34 1.15 1.34.85 0 1.2-.54 1.27-.54l-.06.48h1.1l.47-3.34c.06-1.46-1.2-1.53-1.63-1.53zm.3 2.75c0 .18-.12 1.16-.84 1.16-.36 0-.5-.3-.5-.48 0-.3.2-.73 1.1-.73.18.05.18.05.24.05zM179.06 21.48c.36-2 .42-3.65 1.26-3.35.12-.8.3-1.1.43-1.4 0 0-.06 0-.25 0-.54 0-.96.73-.96.73l.12-.66h-1.15l-.77 4.74h1.33v-.06z"/></svg>