<svg xmlns="http://www.w3.org/2000/svg" width="170" height="54" fill="none"><path fill="#D3D3DB" d="M129.35 35.82h-5.08V10h5.08v25.82z"/><path fill="#D3D3DB" fill-rule="evenodd" d="M117.18 35.82c-.1-.2-.2-.4-.27-.63-.1-.3-.17-.64-.23-1-1.23 1.3-2.82 1.95-4.8 1.95-1.85 0-3.4-.5-4.62-1.54-1.22-1.02-1.82-2.32-1.82-3.9 0-1.92.74-3.4 2.22-4.43 1.5-1.03 3.66-1.55 6.48-1.56h2.33v-1.03c0-.85-.23-1.52-.68-2.02-.45-.5-1.16-.76-2.13-.76-.42 0-.8.04-1.14.14-.08.02-.16.05-.24.08-.07.03-.13.06-.2.1-.04 0-.1.04-.14.07-.04 0-.07.03-.1.05-.03.02-.07.04-.1.07l-.03.02-.06.04c-.48.4-.72.93-.72 1.6h-5.07c0-1.04.34-2 1.02-2.9.67-.9 1.63-1.6 2.87-2.1 1.24-.53 2.63-.8 4.18-.8 2.33 0 4.2.58 5.56 1.7 1.38 1.13 2.07 2.7 2.07 4.75v7.9c0 1.7.26 3.02.75 3.9v.3h-5.12zm-4.2-3.38c.75 0 1.44-.16 2.08-.47.63-.33 1.1-.76 1.4-1.3v-3.12h-1.9c-2.53 0-3.88.84-4.05 2.52v.3c0 .6.22 1.1.66 1.48.28.24.6.4 1 .5.15.04.3.06.47.07.1 0 .23.02.36.02zM32.23 27.33h4.17l4.76 8.5h5.6v-.22l-5.48-9.48c1.52-.62 2.65-1.46 3.4-2.52s1.13-2.38 1.13-3.97c0-2.23-.8-3.96-2.43-5.18-1.63-1.22-3.94-1.83-6.94-1.83H27v23.2h5.23v-8.5zm4.22-3.87h-4.22V16.5h4.2c1.4 0 2.45.3 3.12.93.7.63 1.03 1.5 1.03 2.58 0 1.1-.36 1.93-1.08 2.55-.72.6-1.74.9-3.05.9z" clip-rule="evenodd"/><path fill="#D3D3DB" d="M59.34 34.08c-1.25 1.38-2.97 2.07-5.16 2.07-2.02 0-3.57-.53-4.64-1.6-1.06-1.05-1.6-2.6-1.62-4.66V18.57h5.04v11.15c0 1.8.9 2.7 2.68 2.7 1.7 0 2.88-.55 3.52-1.63V18.58h5.06v17.25h-4.74l-.14-1.75z"/><path fill="#D3D3DB" fill-rule="evenodd" d="M78.84 10h5.32v17c0 5.06-4.17 9.15-9.3 9.15-5.15 0-9.3-4.1-9.3-9.15 0-5.06 4.15-9.15 9.3-9.15 1.42 0 2.64.15 3.98 1.15v-9zm-4.08 22.1c2.83 0 5.12-2.28 5.12-5.1s-2.3-5.1-5.12-5.1c-2.82 0-5.1 2.28-5.1 5.1s2.28 5.1 5.1 5.1zM90.8 44h-5.3V27c0-5.06 4.15-9.15 9.3-9.15 5.13 0 9.3 4.1 9.3 9.15 0 5.06-4.17 9.15-9.3 9.15-1.43 0-2.98-.65-4-1.54V44zm9.55-17c-.07 2.75-2.3 5.1-5.1 5.1-2.84 0-5.13-2.28-5.13-5.1s2.3-5.1 5.12-5.1c2.82 0 5.18 2.28 5.1 5.1z" clip-rule="evenodd"/><path fill="#D3D3DB" d="M135.46 10.85h1.63V10h-4.34v.85h1.6v4.25h1.1v-4.25zM140.2 13.7l-1.35-3.7h-1.43v5.1h1.1v-1.4l-.12-2.4 1.43 3.8h.75l1.43-3.8-.1 2.4v1.4h1.1V10h-1.44l-1.35 3.7z"/></svg>