<svg xmlns="http://www.w3.org/2000/svg" width="170" height="54" fill="none"><path fill="#D3D3DB" fill-rule="evenodd" d="M52.3 27c0 9.4-7.46 17-16.66 17S19 36.4 19 27s7.45-17 16.64-17c9.2 0 16.65 7.6 16.65 17zM30.82 15.14c-1.53.38-2.9.95-4.06 1.7v2.23c1.2-.7 2.57-1.25 4.1-1.64 1.53-.4 3.12-.6 4.77-.6 1.66 0 3.25.2 4.78.6 1.53.4 2.9.93 4.1 1.64v-2.22c-1.18-.76-2.52-1.33-4.04-1.7-1.53-.42-3.14-.62-4.84-.62-1.7 0-3.3.2-4.8.6zm5.92 24.33V21.33h-2.22v18.14h2.22zM27.88 23.6h2.22v12.47h-2.22V23.6zm13.3 0h2.23v12.47h-2.2V23.6zM79.83 21.32c-.9-.5-1.9-.77-3-.77-1.12 0-2.13.26-3.04.77-.9.5-1.62 1.2-2.14 2.1-.52.9-.78 1.88-.78 2.97 0 1.08.26 2.07.78 2.97.52.9 1.23 1.6 2.13 2.12.9.52 1.9.78 3.02.78 1.1 0 2.1-.27 3-.8.92-.5 1.64-1.22 2.16-2.1.52-.9.78-1.9.78-3 0-1.08-.26-2.07-.78-2.96-.52-.9-1.24-1.6-2.15-2.1zm-4.88 1.7c.6-.34 1.22-.5 1.9-.5.67 0 1.3.16 1.86.5.58.35 1.04.8 1.37 1.4.33.6.5 1.25.5 1.97 0 .7-.17 1.36-.5 1.96-.33.6-.78 1.07-1.36 1.42-.56.35-1.18.52-1.85.52-.68 0-1.3-.17-1.9-.52-.57-.35-1.03-.82-1.38-1.42-.34-.6-.5-1.25-.5-1.97 0-.73.16-1.38.5-1.97.34-.6.8-1.06 1.38-1.4z" clip-rule="evenodd"/><path fill="#D3D3DB" d="M70.56 20.7h-9.1v1.94h3.48v9.47h2.15v-9.46h3.46V20.7zM83.46 20.7h9.1v1.94h-3.48v9.47h-2.15v-9.46h-3.47V20.7z"/><path fill="#D3D3DB" fill-rule="evenodd" d="M100.5 29.7l1 2.4h2.28l-4.82-11.4h-2.2l-4.9 11.4h2.2l1-2.4h5.44zm-.76-1.88h-3.92l1.98-4.8 1.94 4.8z" clip-rule="evenodd"/><path fill="#D3D3DB" d="M105.46 20.7h2.13v9.44h4.8v1.97h-6.94V20.7zM121.06 22.9c.54.26 1 .62 1.4 1.1l1.25-1.6c-.54-.58-1.2-1.03-1.95-1.36-.77-.33-1.55-.5-2.34-.5-1.1 0-2.1.27-3 .78-.88.5-1.6 1.2-2.1 2.1-.53.9-.8 1.88-.8 2.97 0 1.08.27 2.07.78 2.97.5.9 1.2 1.6 2.1 2.12.9.52 1.87.78 2.95.78.8 0 1.58-.18 2.35-.53.78-.35 1.46-.84 2.04-1.45l-1.26-1.43c-.4.42-.9.75-1.43 1-.53.23-1.06.35-1.6.35-.68 0-1.3-.17-1.9-.5-.56-.35-1-.82-1.34-1.4-.34-.6-.5-1.26-.5-1.96s.16-1.36.5-1.94c.32-.6.77-1.07 1.34-1.4.58-.34 1.2-.5 1.9-.5.55 0 1.1.12 1.62.38z"/><path fill="#D3D3DB" fill-rule="evenodd" d="M130.64 20.55c1.1 0 2.1.26 3 .77.92.5 1.64 1.2 2.16 2.1.52.9.78 1.88.78 2.97 0 1.08-.26 2.07-.78 2.97-.52.9-1.24 1.6-2.15 2.12-.9.52-1.9.78-3 .78s-2.12-.27-3.03-.8c-.9-.5-1.62-1.22-2.14-2.1-.52-.9-.78-1.9-.78-3 0-1.08.26-2.07.78-2.96.52-.9 1.23-1.6 2.14-2.1.9-.5 1.92-.77 3.02-.77zm.03 1.96c-.68 0-1.3.18-1.9.53-.58.34-1.04.8-1.38 1.4-.35.6-.52 1.24-.52 1.96 0 .7.17 1.36.5 1.96.36.6.83 1.07 1.4 1.42.58.35 1.2.52 1.9.52.66 0 1.28-.17 1.86-.52.57-.35 1.02-.82 1.35-1.42.33-.6.5-1.25.5-1.97 0-.73-.17-1.38-.5-1.97-.34-.6-.8-1.06-1.36-1.4-.58-.35-1.2-.52-1.87-.52z" clip-rule="evenodd"/><path fill="#D3D3DB" d="M141.2 20.7h-2.43v11.4h1.94v-8.17l3.5 7h1.37l3.47-7v8.18H151V20.7h-2.44l-3.66 7.35-3.7-7.35z"/></svg>