<svg xmlns="http://www.w3.org/2000/svg" width="170" height="54" fill="none"><path fill="#C9C9D1" fill-rule="evenodd" d="M14 27c0-9.4 7.72-17 17.25-17 9.52 0 17.25 7.6 17.25 17s-7.73 17-17.25 17C21.72 44 14 36.4 14 27zm3.75-5.78c-.82 1.77-1.3 3.72-1.3 5.78 0 5.62 3.4 10.47 8.35 12.77l-7.05-18.55zm9.32 19.4c1.33.37 2.73.58 4.18.58 1.72 0 3.37-.3 4.9-.8l-.1-.2-4.54-11.96-4.43 12.38zm7.9-20.4s-.8.08-1.7.13l5.36 15.25 1.47-4.73c.04-.12.08-.24.12-.37.58-1.77 1-3.08 1-4.22 0-1.75-.64-2.96-1.2-3.9-.07-.1-.13-.2-.2-.28-.67-1.06-1.26-1.98-1.26-3.06 0-1.3 1.03-2.52 2.48-2.52h.2c-2.64-2.3-6.15-3.7-10-3.7-5.16 0-9.7 2.54-12.34 6.4h.95c1.54 0 3.94-.18 3.94-.18.78-.04.87 1.08.08 1.17 0 0-.8.1-1.7.15l5.4 15.37 3.22-9.3-2.3-6.07c-.8-.05-1.55-.14-1.55-.14-.8-.03-.7-1.2.1-1.16 0 0 2.44.18 3.9.18 1.54 0 3.93-.18 3.93-.18.8-.04.9 1.08.1 1.17zm8.23 6.5l-4.52 12.54c4.4-2.45 7.35-7.02 7.35-12.26 0-2.47-.65-4.8-1.8-6.8.06.44.1.93.1 1.45 0 1.44-.3 3.06-1.13 5.08z" clip-rule="evenodd"/><path fill="#C9C9D1" d="M77.85 19.5v.37c-.27.02-.5.1-.68.2-.2.14-.35.32-.5.58-.03.08-.26.6-.66 1.6L71.5 33.7h-.4l-3.57-8.97-3.92 8.97h-.38L58.5 22.36c-.5-1.14-.82-1.83-1.02-2.07-.2-.25-.5-.4-.96-.43v-.38h6.23v.37c-.5 0-.84.1-1 .22-.17.12-.25.3-.25.5 0 .25.17.8.52 1.64L64.84 29l2.26-5.28-.6-1.48c-.32-.8-.57-1.35-.75-1.6-.17-.3-.38-.48-.6-.6-.24-.1-.57-.17-1.02-.17v-.38h6.96v.37c-.5 0-.84.04-1.06.1-.14.06-.26.14-.35.26-.1.1-.13.23-.13.38 0 .16.16.65.47 1.45l2.62 6.6L75 22.67c.25-.62.4-1.04.46-1.26.06-.23.1-.44.1-.63 0-.3-.1-.5-.3-.67-.2-.16-.6-.25-1.15-.26v-.38h3.75z"/><path fill="#C9C9D1" fill-rule="evenodd" d="M81.38 23.52c.87 0 1.67.22 2.4.65.75.43 1.3 1.04 1.7 1.83.38.8.58 1.67.58 2.6 0 1.37-.36 2.5-1.07 3.43-.87 1.1-2.07 1.66-3.58 1.66-1.5 0-2.64-.52-3.45-1.53-.8-1-1.2-2.18-1.2-3.52 0-1.37.4-2.57 1.22-3.6.82-1.02 1.95-1.53 3.38-1.53zm.05.73c-.36 0-.68.13-.94.4-.26.26-.43.78-.52 1.56-.07.78-.1 1.86-.1 3.24 0 .73.04 1.42.14 2.05.07.48.24.85.5 1.1.25.26.54.38.86.38.32 0 .6-.08.8-.25.27-.24.46-.56.55-.98.14-.65.2-1.96.2-3.94 0-1.15-.06-1.95-.2-2.38-.12-.44-.32-.76-.58-.95-.2-.15-.43-.22-.72-.22z" clip-rule="evenodd"/><path fill="#C9C9D1" d="M90.83 25.98V23.8h-4.05v.4c.34.02.57.08.7.17.14.1.24.23.3.42.07.14.1.5.1 1.04v5.3c0 .84-.08 1.36-.23 1.55-.15.2-.44.3-.87.33v.37h5.35v-.37c-.4-.02-.68-.07-.85-.15-.16-.1-.3-.23-.37-.4-.04-.12-.06-.37-.06-.76l-.02-.57v-2.2c0-.8.12-1.54.34-2.2.15-.44.37-.77.66-1 .2-.15.38-.23.58-.23.1 0 .18.02.25.06.05.03.2.16.5.4.26.23.6.34.96.34.34 0 .6-.12.84-.38.23-.25.35-.6.35-1.06 0-.44-.13-.77-.37-1-.24-.24-.55-.36-.95-.36-.46 0-.93.17-1.43.5-.5.32-1.07.97-1.72 1.96z"/><path fill="#C9C9D1" fill-rule="evenodd" d="M106 19.5v11.03c0 .75 0 1.2.06 1.32.05.23.16.4.3.5.18.12.46.18.85.2v.35l-4.17.8v-1.53c-.5.6-.96 1-1.35 1.2-.4.2-.83.32-1.33.32-1.26 0-2.26-.56-3-1.65-.6-.9-.9-1.98-.9-3.28 0-1.03.2-1.95.56-2.77.38-.82.88-1.44 1.52-1.85.64-.42 1.33-.63 2.07-.63.46 0 .88.1 1.25.27s.76.48 1.18.92v-2.9c0-.72-.04-1.17-.1-1.32-.1-.2-.2-.34-.38-.44-.17-.1-.5-.14-.96-.14v-.43h4.4zm-2.97 6.5c-.53-.98-1.17-1.46-1.92-1.46-.25 0-.47.07-.64.2-.26.2-.48.6-.65 1.12-.15.53-.23 1.35-.23 2.45 0 1.22.1 2.12.28 2.7.18.58.43 1 .75 1.26.16.13.38.2.67.2.62 0 1.2-.47 1.76-1.42V26zM113.57 30.96V27.1c1.63 0 2.8-.08 3.48-.24 1.02-.24 1.8-.67 2.4-1.32.57-.64.86-1.4.86-2.32 0-1.06-.44-1.95-1.33-2.66-.9-.72-2.38-1.07-4.44-1.07h-6.27v.37c.66 0 1.1.06 1.35.17.25.12.4.28.5.47.1.2.15.68.15 1.43v9.03c0 .75-.05 1.23-.14 1.42-.1.2-.25.35-.5.47-.23.12-.67.17-1.34.17v.38h7.3v-.38c-.65 0-1.1-.05-1.34-.17-.24-.12-.4-.27-.5-.46-.1-.2-.15-.7-.15-1.44zm0-4.66v-6h.44c.93 0 1.63.23 2.1.7.46.5.7 1.24.7 2.27 0 1.04-.24 1.8-.7 2.3-.47.5-1.14.75-2 .75-.12 0-.3 0-.53-.02z" clip-rule="evenodd"/><path fill="#C9C9D1" d="M125.82 23.8V26c.66-1 1.24-1.64 1.73-1.97.5-.3.97-.48 1.43-.48.4 0 .7.12.95.36.24.23.36.56.36 1 0 .45-.13.8-.36 1.06-.23.26-.5.38-.83.38-.36 0-.7-.1-.97-.35-.27-.23-.43-.36-.48-.4-.07-.03-.16-.05-.25-.05-.2 0-.4.08-.58.23-.3.23-.5.56-.66 1-.22.66-.34 1.4-.34 2.2v2.77c0 .4.04.64.1.75.07.18.2.32.36.4.17.1.45.14.85.16v.37h-5.35v-.37c.43-.03.72-.14.86-.34.16-.2.24-.72.24-1.55v-5.3c0-.56-.03-.9-.1-1.06-.06-.2-.16-.34-.3-.43-.13-.1-.37-.15-.7-.18v-.4h4.04z"/><path fill="#C9C9D1" fill-rule="evenodd" d="M133.9 28.26h5.45c-.06-1.56-.46-2.74-1.2-3.54-.73-.8-1.6-1.2-2.6-1.2-1.2 0-2.26.48-3.16 1.43-.9.94-1.34 2.2-1.34 3.8 0 1.32.3 2.42.9 3.3.77 1.1 1.88 1.64 3.35 1.64.86 0 1.62-.23 2.27-.67.65-.44 1.24-1.2 1.78-2.25l-.36-.23c-.4.6-.78 1-1.13 1.24-.34.22-.73.33-1.15.33-.7 0-1.27-.28-1.76-.85-.64-.74-1-1.75-1.05-3.02zm2.65-2.95c.13.42.2 1.17.2 2.27h-2.9v-.35c0-1.07.22-1.9.63-2.5.24-.36.54-.53.9-.53.25 0 .45.05.6.17.26.2.45.53.57.94z" clip-rule="evenodd"/><path fill="#C9C9D1" d="M146.86 23.54l.16 3.28h-.36c-.43-.98-.88-1.64-1.34-2-.46-.35-.92-.53-1.38-.53-.3 0-.54.1-.74.28-.2.18-.3.4-.3.64 0 .2.06.37.2.54.23.28.86.76 1.9 1.44 1.04.68 1.72 1.26 2.04 1.74.34.47.5 1 .5 1.6 0 .52-.14 1.05-.4 1.56-.3.5-.68.9-1.18 1.18-.5.27-1.05.4-1.66.4-.48 0-1.1-.13-1.9-.42-.2-.08-.36-.1-.43-.1-.24 0-.43.16-.6.5h-.34l-.17-3.45h.36c.32.9.76 1.6 1.3 2.04.57.45 1.1.68 1.6.68.33 0 .6-.1.8-.3.23-.2.34-.45.34-.74 0-.32-.1-.6-.3-.85-.23-.24-.7-.6-1.44-1.1-1.08-.7-1.78-1.26-2.1-1.65-.46-.56-.7-1.18-.7-1.85 0-.74.27-1.4.8-2 .52-.6 1.28-.9 2.28-.9.54 0 1.06.12 1.56.37.2.1.34.15.46.15.13 0 .23-.02.3-.07.1-.05.2-.2.38-.44h.36zM155.48 26.82l-.16-3.28h-.36c-.17.24-.3.4-.37.44-.1.05-.2.07-.32.07s-.27-.05-.46-.15c-.5-.25-1.03-.38-1.56-.38-1 0-1.76.3-2.3.9-.5.6-.78 1.27-.78 2 0 .68.24 1.3.7 1.86.32.4 1.02.94 2.1 1.66.74.5 1.2.85 1.42 1.1.22.23.32.52.32.84 0 .3-.1.54-.33.74-.22.2-.5.3-.83.3-.5 0-1.03-.23-1.58-.68-.56-.45-1-1.13-1.32-2.03h-.36l.17 3.46h.34c.16-.34.35-.5.6-.5.06 0 .2.02.42.1.8.3 1.42.43 1.9.43.6 0 1.16-.15 1.66-.42s.9-.67 1.17-1.18c.26-.5.4-1.04.4-1.57 0-.6-.17-1.12-.5-1.6-.32-.47-1-1.05-2.04-1.73-1.04-.68-1.68-1.16-1.9-1.44-.14-.17-.2-.35-.2-.54 0-.24.1-.46.3-.64.2-.2.45-.3.74-.3.46 0 .9.2 1.37.54.47.36.92 1.02 1.35 2h.36z"/></svg>